HIERARCHY
ROOT Hips
{
  OFFSET 13.6774 106.653 -34.4427
  CHANNELS 6 Xposition Yposition Zposition Zrotation Xrotation Yrotation
  JOINT ToSpine
  {
    OFFSET -2.69724 7.43032 -0.144315
    CHANNELS 3 Zrotation Xrotation Yrotation
    JOINT Spine
    {
      OFFSET -0.0310711 10.7595 1.96963
      CHANNELS 3 Zrotation Xrotation Yrotation
      JOINT Spine1
      {
        OFFSET 19.9056 3.91189 0.764692
        CHANNELS 3 Zrotation Xrotation Yrotation
        JOINT Neck
        {
          OFFSET 25.9749 7.03908 -0.130764
          CHANNELS 3 Zrotation Xrotation Yrotation
          JOINT Head
          {
            OFFSET 9.52751 0.295786 -0.907742
            CHANNELS 3 Zrotation Xrotation Yrotation
            End Site
            {
              OFFSET 16.4037 0.713936 2.7358
            }
          }
        }
        JOINT LeftShoulder
        {
          OFFSET 17.7449 4.33886 11.7777
          CHANNELS 3 Zrotation Xrotation Yrotation
          JOINT LeftArm
          {
            OFFSET 0.911315 1.27913 9.80584
            CHANNELS 3 Zrotation Xrotation Yrotation
            JOINT LeftForeArm
            {
              OFFSET 28.6126 1.18197 -3.53199
              CHANNELS 3 Zrotation Xrotation Yrotation
              JOINT LeftHand
              {
                OFFSET 27.5088 0.0218783 0.327423
                CHANNELS 3 Zrotation Xrotation Yrotation
                End Site
                {
                  OFFSET 18.6038 -0.000155887 0.382096
                }
              }
            }
          }
        }
        JOINT RightShoulder
        {
          OFFSET 17.1009 2.89543 -12.2328
          CHANNELS 3 Zrotation Xrotation Yrotation
          JOINT RightArm
          {
            OFFSET 1.4228 0.178766 -10.211
            CHANNELS 3 Zrotation Xrotation Yrotation
            JOINT RightForeArm
            {
              OFFSET 28.733 1.87905 2.64907
              CHANNELS 3 Zrotation Xrotation Yrotation
              JOINT RightHand
              {
                OFFSET 27.4588 0.290562 -0.101845
                CHANNELS 3 Zrotation Xrotation Yrotation
                End Site
                {
                  OFFSET 17.8396 -0.255518 -0.000602873
                }
              }
            }
          }
        }
      }
    }
  }
  JOINT LeftUpLeg
  {
    OFFSET -5.61296 -2.22332 -10.2353
    CHANNELS 3 Zrotation Xrotation Yrotation
    JOINT LeftLeg
    {
      OFFSET 2.56703 -44.7417 -7.93097
      CHANNELS 3 Zrotation Xrotation Yrotation
      JOINT LeftFoot
      {
        OFFSET 3.16933 -46.5642 -3.96578
        CHANNELS 3 Zrotation Xrotation Yrotation
        JOINT LeftToeBase
        {
          OFFSET 0.346054 -6.02161 12.8035
          CHANNELS 3 Zrotation Xrotation Yrotation
          End Site
          {
            OFFSET 0.134235 -1.35082 5.13018
          }
        }
      }
    }
  }
  JOINT RightUpLeg
  {
    OFFSET -5.7928 -1.72406 10.6446
    CHANNELS 3 Zrotation Xrotation Yrotation
    JOINT RightLeg
    {
      OFFSET -2.57161 -44.7178 -7.85259
      CHANNELS 3 Zrotation Xrotation Yrotation
      JOINT RightFoot
      {
        OFFSET -3.10148 -46.5936 -4.03391
        CHANNELS 3 Zrotation Xrotation Yrotation
        JOINT RightToeBase
        {
          OFFSET -0.0828122 -6.13587 12.8035
          CHANNELS 3 Zrotation Xrotation Yrotation
          End Site
          {
            OFFSET -0.131328 -1.35082 5.13018
          }
        }
      }
    }
  }
}
MOTION
Frames: 17
Frame Time: 0.03333333333333333
0.0000 93.1000 0.0000 -66.9002 -37.8211 -176.2605 -71.3134 0.1760 87.3798 75.5714 73.2833 22.5058 3.0091 26.5221 -1.0053 -138.9132 14.4361 -163.1607 -156.2439 49.0821 -167.3947 0.6842 -9.6118 -19.2453 -134.5690 31.6364 -77.1134 13.3369 -11.5704 -126.2427 0.0440 -0.4659 0.8810 -1.7083 9.4578 29.1716 -53.6997 -30.7908 167.8773 31.2174 -9.5888 75.1107 -0.3090 1.2333 1.1682 -67.5467 -2.7448 106.0846 -6.4658 60.6729 -5.1893 -14.7491 20.3899 5.3517 4.8216 -9.3622 -6.1792 -34.8411 -14.0836 49.3299 1.6119 51.9500 -3.6797 -7.7933 -28.1167 0.6585 6.1346 0.3605 -36.5866 
0.0000 93.1000 0.0000 -67.1282 -46.8085 -173.0582 -71.5099 0.9567 87.2811 79.8371 74.4624 16.5293 2.6160 27.6534 -2.8832 -135.2448 15.5476 -166.3220 -155.3645 50.5988 -167.9438 0.8881 -10.3472 -20.1887 -125.5260 43.0580 -86.4666 17.6333 -13.0056 -122.9753 0.3034 -0.3018 0.8622 -1.4058 10.3779 26.9988 -57.5539 -34.8610 168.9440 29.8924 -9.2450 74.9573 -0.2777 0.8477 1.0315 -66.0823 2.6001 109.0559 -5.5449 57.1379 -1.3198 -11.9807 22.6625 4.1042 10.1700 -23.6740 11.7594 -37.0900 -14.4837 46.9380 1.3433 49.8883 -5.7976 -7.2990 -26.7799 0.7766 6.0831 -0.9402 -37.5347 
0.0000 93.1000 0.0000 -66.1025 -56.6532 -167.1128 -71.4920 0.2024 87.6056 84.5575 75.3283 11.0940 3.4256 28.7872 -4.6596 -129.1060 15.8892 -172.7650 -155.7103 51.6932 -166.5885 0.3994 -11.0071 -20.0590 -106.7927 51.8284 -103.2456 24.4999 -14.1370 -116.0029 0.1445 -0.4504 0.9714 -1.7520 11.4472 24.8230 -61.6809 -41.3513 168.2231 30.4722 -10.1613 73.7813 -0.4645 0.5902 0.7197 -65.8366 8.0007 110.5797 -3.5764 57.7821 10.6818 -4.2068 15.6055 1.5574 6.3694 -15.2553 8.0130 -39.1862 -14.6763 44.9832 0.4632 49.0240 -11.2663 -6.5919 -22.7521 0.6895 5.3381 -2.4575 -34.0544 
0.0000 93.1000 0.0000 -58.7981 -67.6004 -157.8526 -71.1991 -0.1461 88.0134 79.8948 75.0151 13.6030 4.4619 29.2907 -4.3193 -120.9574 16.1620 -178.7004 -155.1353 52.9219 -166.7121 0.7625 -12.1183 -17.3917 -84.5496 54.7420 -122.5598 32.6060 -13.9259 -110.3215 -0.8256 0.3121 -0.4879 -2.2422 11.8216 21.5051 -66.5399 -49.2056 161.9571 29.1920 -10.3220 73.2162 0.9293 -1.9700 -1.5562 -66.9338 11.1576 111.8601 -1.5109 50.0114 13.9564 -0.4819 11.4983 -0.0513 5.9579 -11.7735 0.7656 -43.4767 -16.0602 42.8982 -0.6586 46.3233 -13.9496 -5.1672 -16.5494 1.2242 2.2129 -7.3117 -23.9381 
0.0000 93.1000 0.0000 -26.8644 -76.5767 -122.0971 -71.1252 0.1175 87.8512 60.8731 72.9310 28.5094 7.6203 28.0905 -6.6225 -116.3267 14.6280 176.0470 -157.2909 54.0414 -163.6634 0.5616 -13.0120 -13.1006 -67.6308 52.1640 -138.0466 35.7168 -10.8705 -103.8957 0.3665 -0.9091 0.1799 -0.7827 11.1910 16.6854 -73.8506 -59.7243 153.6854 30.2078 -10.2746 73.4600 0.0949 0.4355 0.7307 -67.1409 14.1297 108.9299 -1.8250 40.4527 8.7483 -0.5986 10.5978 0.4946 6.0575 -13.5314 0.8093 -45.0629 -17.4372 42.9983 -1.2618 43.9726 -17.4741 -5.5083 -12.1585 0.6300 1.5501 -3.5333 -12.9418 
0.0000 93.1000 0.0000 32.1100 -73.2591 -58.8948 -71.0491 0.3354 87.8526 45.9807 69.7237 38.0832 10.8176 25.5162 -5.7021 -109.0183 11.6332 167.3742 -151.3531 53.7649 -166.1638 0.6031 -14.2654 -9.3699 -57.6084 47.5799 -149.5045 35.0311 -7.2640 -99.0481 -0.2188 -0.4278 0.2228 -0.9896 10.5329 19.8008 -94.2904 -60.3390 131.7980 28.5908 -9.9425 74.4711 0.1555 0.4836 0.4190 -64.1415 15.7553 102.9108 -1.8126 31.8024 -3.4120 -2.0828 11.5469 0.7881 6.6124 -15.9369 5.3082 -44.9439 -17.2025 48.8312 -0.9745 41.7138 -17.5063 -5.6451 -5.0752 0.5681 1.6482 -7.8790 -8.5051 
0.0000 93.1000 0.0000 55.5453 -62.5256 -31.8384 -71.2648 -0.5361 87.8016 51.1049 68.1486 33.3078 11.5577 23.4983 -6.5615 -108.1188 11.2489 164.7680 -157.4698 55.3778 -158.5733 -0.2811 -14.5172 -8.4472 -56.3028 40.9065 -152.4382 33.1719 -5.7006 -97.1851 0.0618 -0.8930 0.8555 -1.7112 11.2558 21.0578 -112.4772 -56.8984 112.9256 23.7375 -8.1610 73.6220 -0.3645 1.4599 0.8384 -58.0893 17.3734 96.4707 -2.0555 32.4799 -5.2107 -3.0310 10.0592 1.3791 5.2066 -14.4790 6.5122 -43.7627 -16.8058 56.8572 -0.8584 43.7926 -15.2845 -5.6647 1.5374 -0.4040 1.1227 -8.1009 -6.7730 
0.0000 93.1000 0.0000 62.4263 -51.6544 -20.8020 -71.1921 -0.3932 87.5691 62.9805 68.4817 24.9479 10.6488 22.9538 -8.5112 -108.1653 12.3292 162.9581 -165.1547 57.3988 -153.6593 -0.1069 -14.6811 -10.4809 -58.4780 32.7289 -154.5811 28.4093 -3.8126 -95.7592 -0.0218 -0.3820 0.4257 -2.0642 11.5737 23.4330 -124.9123 -47.9197 103.2948 21.6392 -8.0674 71.3685 0.1597 0.2375 -0.0744 -52.5830 18.7500 96.0355 -2.0184 36.2997 -2.0976 -3.8273 7.6150 1.0504 4.2340 -11.0799 0.7755 -41.0078 -14.4567 68.3948 -0.3120 47.8555 -10.7636 -8.6746 3.6304 0.7578 0.2413 -9.4421 -6.4124 
0.0000 93.1000 0.0000 64.4940 -43.8706 -16.7883 -71.1258 1.2354 87.5878 77.7885 70.1018 12.9536 8.7231 23.4519 -7.2400 -112.2311 16.0918 162.5528 -174.6482 59.8532 -144.0794 2.4436 -14.6357 -13.1993 -59.3818 28.7074 -155.6288 26.4028 -3.0891 -95.5862 -1.0978 2.1748 -1.9858 -1.3147 12.1442 21.0717 -133.5665 -40.3620 93.7139 18.9996 -8.4240 67.9563 1.3321 -4.1744 -3.2364 -51.2372 18.7382 97.8459 -1.9205 39.5496 -0.9613 -2.9182 3.9198 -1.1959 7.5937 -13.9968 -6.2995 -38.4456 -10.9502 80.8653 2.0051 46.1458 3.7469 -6.8343 3.0358 2.2261 0.0518 -21.0905 -17.4328 
0.0000 93.1000 0.0000 64.6335 -37.1905 -14.4473 -71.1618 -0.3698 87.2033 85.9355 71.1452 3.7887 3.5538 22.7390 -6.0763 -115.0547 19.0355 161.9813 177.8772 62.1113 -139.2367 -0.3743 -14.4873 -16.1283 -58.6028 26.8786 -155.4269 25.7701 -2.5881 -93.8828 -0.0401 -0.6853 0.0999 -2.2498 10.9616 23.8071 -134.7618 -27.6418 94.6368 13.8678 -7.8932 64.2543 0.2322 -0.1493 0.1305 -48.1006 18.8366 100.3895 -2.9465 39.6819 -5.9915 -2.2414 -0.4550 0.4363 6.6854 -15.4266 -6.7949 -37.4471 -9.1061 92.0936 3.1080 37.8993 13.6600 -1.1526 -0.7404 -0.1694 1.0923 -28.1884 -36.2780 
0.0000 93.1000 0.0000 62.2712 -31.1626 -15.0727 -71.1482 0.3284 87.2853 88.9860 71.5794 -1.6924 2.3771 22.6819 -4.7725 -122.2486 22.0698 155.3264 173.6747 65.4474 -142.4515 0.0550 -15.1364 -17.8062 -59.6636 24.5606 -157.2984 23.6608 -1.1083 -92.3107 -0.0375 -0.2091 0.1634 -1.9920 9.7943 30.4648 -136.1354 -13.6831 97.4691 10.7237 -7.0156 60.4469 0.3379 0.0495 0.2543 -43.2345 17.2720 102.6139 -3.3950 40.1564 -11.2596 -1.2653 -4.7472 -0.6262 5.6808 -13.8831 -2.3047 -34.9736 -10.8266 94.2026 1.9371 34.6877 17.9597 2.6619 -1.2653 -0.8277 1.6964 -23.6389 -38.2349 
0.0000 93.1000 0.0000 63.6727 -23.8090 -14.4809 -71.3753 0.1908 87.2829 87.0762 70.8576 -3.2287 2.6612 21.8780 -4.6356 -129.2685 25.8001 152.1203 169.8951 68.6327 -142.3284 0.0426 -16.2321 -21.2926 -63.0800 21.2992 -156.5193 22.9270 -1.0171 -90.9508 -0.2325 -0.0325 -0.1906 -2.4443 9.9257 34.9309 -140.5315 -4.4500 97.5895 6.4488 -4.8984 58.1572 0.2374 -0.3379 -0.2467 -36.8341 14.0299 100.8011 -4.2199 44.3769 -12.6116 0.7638 -7.2428 -1.0038 4.5770 -12.9042 0.3568 -31.1284 -14.2979 92.5748 1.7990 40.0502 9.3695 2.4580 -4.9321 -0.2328 1.5562 -11.4352 -32.8086 
0.0000 93.1000 0.0000 65.6028 -19.3736 -12.5895 -71.3321 0.2767 87.3097 101.7176 69.5782 -15.2467 1.3483 22.1351 -5.2111 -130.1603 28.3511 151.6557 163.1347 70.7426 -137.6957 -0.0225 -16.1563 -22.6513 -64.3400 21.1236 -155.2034 22.8091 -0.9571 -91.2447 -0.2832 0.0060 0.0994 -2.9321 9.8034 36.6655 -145.4940 -0.8882 95.7172 4.8737 -3.9036 58.1833 0.1559 -0.2141 -0.1146 -32.8105 13.0553 98.5742 -5.8749 48.4820 -14.4855 -0.3425 -10.4828 -1.1649 4.4056 -11.2336 3.2928 -29.6220 -17.6744 90.9122 3.0090 45.9756 12.4678 2.4731 -7.2626 -0.2436 3.1559 -12.6837 -41.9821 
0.0000 93.1000 0.0000 65.6739 -16.2328 -9.9135 -71.3835 0.2157 87.3560 101.8705 69.7937 -14.3684 1.0235 21.7195 -4.3632 -127.0926 30.1163 151.7837 155.7004 71.6679 -129.5145 0.0126 -17.0522 -25.2129 -64.2366 23.0085 -153.1816 23.5760 -1.0046 -91.2338 -0.2715 0.0264 -0.0010 -3.1373 9.0482 38.4706 -148.6959 1.7764 93.9920 4.7600 -3.8273 59.2807 0.1295 -0.2550 -0.2007 -29.2628 14.5404 97.7546 -7.2191 54.9855 -17.2282 -0.1169 -10.9429 -1.5071 4.9129 -13.0754 4.6007 -29.7001 -20.7292 87.2978 2.8035 49.1928 8.8973 2.7145 -7.9182 -0.0088 2.4824 -14.0436 -27.6317 
0.0000 93.1000 0.0000 66.7699 -15.2917 -8.7146 -71.2526 0.0789 87.4475 99.9861 70.2149 -14.0643 0.1200 21.1302 -2.3488 -125.1830 30.7659 153.0161 152.6828 71.8644 -126.7155 -0.2333 -17.8693 -25.5143 -61.6434 25.7681 -152.0556 23.8205 -1.8114 -93.0415 -0.0248 -0.0981 0.1614 -3.0412 8.3636 39.7595 -150.6081 2.9284 93.1792 4.0802 -2.8986 60.1631 0.0397 0.3306 -0.0641 -28.2450 16.8314 97.8942 -8.3216 58.9695 -17.2825 0.3028 -12.1343 -1.6917 4.6967 -11.9535 -0.4005 -30.3042 -24.1299 81.9761 3.7734 51.9355 7.9089 1.3242 -8.3254 -0.1421 1.9807 -14.9371 -16.7516 
0.0000 93.1000 0.0000 67.6480 -14.4265 -7.7248 -71.3064 0.0937 87.4526 99.8333 70.5798 -12.9922 -0.3191 20.9894 -1.1064 -125.0905 31.6017 153.4989 153.5222 72.6105 -126.5615 -0.3030 -17.8528 -25.7074 -61.1972 26.7615 -151.1948 23.9460 -2.2923 -94.1041 -0.1843 -0.2608 0.2031 -3.0653 8.4108 40.2097 -151.4802 3.7711 93.2013 3.7964 -2.8445 60.3209 0.1154 0.2398 0.0937 -28.0841 17.6360 97.8727 -8.0453 60.1963 -16.4249 0.3006 -14.3897 -1.9125 4.0150 -9.8242 -2.0924 -31.8572 -27.8052 75.2529 4.0036 54.0893 7.0643 0.9732 -10.1410 -0.1760 1.0015 -11.1580 -8.4268 
0.0000 93.1000 0.0000 67.8799 -14.4952 -6.7965 -71.2530 0.1678 87.6373 97.2048 70.5717 -10.5335 -0.1167 21.1057 -0.6743 -126.2705 32.9138 155.1374 149.5788 72.9185 -124.7979 -0.0071 -17.1656 -25.7260 -61.3570 26.1205 -152.2467 22.8064 -2.9529 -94.9391 -0.0120 -0.1127 0.0996 -3.0288 8.0171 39.4671 -152.2985 3.9116 91.3939 4.0336 -2.8234 61.2518 0.0453 0.0400 -0.1272 -28.1383 17.1863 96.7552 -8.1401 60.0243 -17.2159 -0.0613 -15.1955 -1.8101 4.0810 -11.8510 2.2962 -32.9681 -30.4868 71.1301 4.9156 54.1963 11.5977 1.3539 -10.9938 -0.0667 1.1279 -10.1412 -10.9276 
